<svg width="83" height="28" viewBox="0 0 83 28" fill="none" xmlns="http://www.w3.org/2000/svg">
<path fill-rule="evenodd" clip-rule="evenodd" d="M14 0C6.3 0 0 6.3 0 14C0 21.7 6.3 28 14 28C21.7 28 28 21.7 28 14C28 6.3 21.7 0 14 0ZM14 25.2C7.84 25.2 2.8 20.16 2.8 14C2.8 7.84 7.84 2.8 14 2.8C20.16 2.8 25.2 7.84 25.2 14C25.2 20.16 20.16 25.2 14 25.2ZM11.62 15.68L8.96 13.02L7 14.98L11.62 19.74L21 10.36L19.04 8.4L11.62 15.68ZM36.9373 19.6894C37.5275 19.8879 38.1612 19.9872 38.8385 19.9872C39.4354 19.9872 39.9383 19.9391 40.3474 19.843C40.7632 19.747 41.1522 19.6061 41.5143 19.4204V17.8638C41.1522 18.0239 40.7498 18.1649 40.3072 18.2866C39.8713 18.4019 39.3817 18.4595 38.8385 18.4595C37.846 18.4595 37.105 18.1489 36.6154 17.5275C36.1326 16.8999 35.8911 15.9103 35.8911 14.5587C35.8911 13.2008 36.1326 12.2016 36.6154 11.5611C37.0983 10.9141 37.8661 10.5906 38.919 10.5906C39.0934 10.5906 39.2778 10.6067 39.4723 10.6387C39.6667 10.6643 39.8646 10.7027 40.0658 10.754C40.2669 10.7988 40.4614 10.8533 40.6492 10.9173C40.837 10.975 41.008 11.0358 41.1622 11.0999L41.7054 9.62025C41.3701 9.46012 40.951 9.3256 40.448 9.21672C39.9518 9.10783 39.4421 9.05338 38.919 9.05338C38.235 9.05338 37.5945 9.15266 36.9977 9.35123C36.4008 9.54979 35.8777 9.87006 35.4284 10.312C34.9858 10.7476 34.6371 11.3176 34.3823 12.0222C34.1274 12.7204 34 13.5723 34 14.5779C34 15.5387 34.1241 16.3618 34.3722 17.0472C34.6203 17.7261 34.9623 18.2866 35.3982 18.7286C35.8341 19.1642 36.3472 19.4844 36.9373 19.6894ZM52.8109 16.8454C53.0389 16.16 53.1529 15.3786 53.1529 14.5011C53.1529 13.63 53.0322 12.8581 52.7908 12.1856C52.556 11.5066 52.2241 10.9365 51.795 10.4754C51.3724 10.0078 50.8695 9.65548 50.286 9.41848C49.7026 9.17508 49.0654 9.05338 48.3748 9.05338C47.6304 9.05338 46.9564 9.17508 46.3529 9.41848C45.756 9.65548 45.2496 10.0078 44.8339 10.4754C44.4182 10.9365 44.0962 11.5066 43.8682 12.1856C43.6469 12.8581 43.5362 13.63 43.5362 14.5011C43.5362 15.3786 43.6536 16.16 43.8883 16.8454C44.1297 17.5244 44.4617 18.0976 44.8841 18.5652C45.3134 19.0264 45.8196 19.3787 46.4031 19.6222C46.9866 19.8655 47.6237 19.9872 48.3144 19.9872C49.0588 19.9872 49.7294 19.8655 50.3262 19.6222C50.9231 19.3787 51.4294 19.0264 51.8452 18.5652C52.2677 18.0976 52.5896 17.5244 52.8109 16.8454ZM46.1114 17.5275C45.6554 16.8486 45.4274 15.8397 45.4274 14.5011C45.4274 13.1624 45.652 12.1631 46.1013 11.5034C46.5574 10.8373 47.3018 10.5042 48.3346 10.5042C49.3672 10.5042 50.1116 10.8373 50.5676 11.5034C51.0304 12.1631 51.2617 13.1624 51.2617 14.5011C51.2617 15.8397 51.0337 16.8486 50.5777 17.5275C50.1285 18.2001 49.3873 18.5364 48.3547 18.5364C47.3219 18.5364 46.5742 18.2001 46.1114 17.5275ZM54.2897 9.24554L58.0619 19.795H60.3855L64.1578 9.24554H62.2666L60.2648 15.116C60.1911 15.3274 60.1039 15.5996 60.0033 15.9327C59.9027 16.2657 59.8021 16.6052 59.7015 16.9511C59.601 17.297 59.5104 17.6237 59.4299 17.9311C59.3494 18.2386 59.2925 18.4724 59.2589 18.6325H59.1885C59.1617 18.4724 59.1047 18.2386 59.0175 17.9311C58.937 17.6237 58.8465 17.297 58.7459 16.9511C58.6452 16.6052 58.5447 16.2657 58.4441 15.9327C58.3435 15.5996 58.2563 15.3274 58.1825 15.116L56.1808 9.24554H54.2897ZM68.2621 19.6317C68.8723 19.8687 69.5463 19.9872 70.2839 19.9872C70.626 19.9872 70.9411 19.9744 71.2294 19.9488C71.5245 19.9232 71.8062 19.8815 72.0745 19.8238C72.3494 19.7662 72.6143 19.6926 72.8691 19.6029C73.1306 19.5132 73.3956 19.4075 73.6638 19.2858V17.7293C73.4023 17.8446 73.1441 17.9503 72.8893 18.0463C72.6345 18.1361 72.3696 18.2129 72.0946 18.2769C71.8263 18.3347 71.5446 18.3795 71.2495 18.4115C70.9612 18.4435 70.6461 18.4595 70.3041 18.4595C69.2914 18.4595 68.5269 18.1681 68.0105 17.5852C67.5008 17.0023 67.2292 16.0928 67.1957 14.8566H74.1567V13.7709C74.1567 13.0663 74.0562 12.4258 73.8549 11.8493C73.6605 11.2664 73.3788 10.77 73.01 10.3601C72.6412 9.94372 72.1919 9.62345 71.6621 9.39927C71.1323 9.16868 70.5354 9.05338 69.8715 9.05338C69.1941 9.05338 68.5738 9.17828 68.0105 9.42809C67.4539 9.6779 66.9744 10.043 66.572 10.5234C66.1697 10.9974 65.8578 11.5771 65.6366 12.2624C65.4152 12.9478 65.3046 13.726 65.3046 14.5972C65.3046 15.4619 65.4253 16.2305 65.6667 16.9031C65.9081 17.5757 66.2468 18.1393 66.6827 18.5941C67.1253 19.0488 67.6518 19.3948 68.2621 19.6317ZM68.0105 11.2536C68.4598 10.754 69.0667 10.5042 69.8312 10.5042C70.247 10.5042 70.6025 10.5746 70.8975 10.7156C71.1927 10.8565 71.434 11.055 71.6219 11.3112C71.8163 11.5675 71.9571 11.8781 72.0444 12.2432C72.1382 12.6019 72.1851 12.999 72.1851 13.4346H67.236C67.3097 12.4802 67.5679 11.7532 68.0105 11.2536ZM82.3752 9.0822C82.1338 9.06299 81.9159 9.05338 81.7213 9.05338C81.3458 9.05338 81.0105 9.11423 80.7153 9.23593C80.4204 9.35123 80.1521 9.50816 79.9107 9.70672C79.676 9.89887 79.4614 10.1231 79.2669 10.3793C79.0792 10.6355 78.9014 10.9013 78.7337 11.1767H78.6532L78.4319 9.24554H76.9432V19.795H78.774V14.1071C78.774 13.5883 78.841 13.1175 78.9751 12.6948C79.116 12.2656 79.3105 11.9005 79.5586 11.5995C79.8134 11.292 80.1152 11.0582 80.464 10.8981C80.8127 10.7316 81.1982 10.6483 81.6208 10.6483C81.7951 10.6483 81.9795 10.6611 82.174 10.6867C82.3752 10.7059 82.5696 10.7316 82.7574 10.7636L82.9988 9.14946C82.8245 9.11743 82.6166 9.09501 82.3752 9.0822Z" fill="#03BF00"/>
</svg>
