<svg width="160" height="103" viewBox="0 0 160 103" fill="none" xmlns="http://www.w3.org/2000/svg">
<path fill-rule="evenodd" clip-rule="evenodd" d="M0 14C0 6.26801 6.26801 0 14 0H146C153.732 0 160 6.26801 160 14V89C160 96.732 153.732 103 146 103H14C6.26801 103 0 96.732 0 89V14ZM14 4C8.47715 4 4 8.47715 4 14V20H156V14C156 8.47715 151.523 4 146 4H14ZM156 24H4V89C4 94.5229 8.47715 99 14 99H146C151.523 99 156 94.5229 156 89V24Z" fill="url(#paint0_linear_924_499)"/>
<path d="M148 12C148 13.933 146.433 15.5 144.5 15.5C142.567 15.5 141 13.933 141 12C141 10.067 142.567 8.5 144.5 8.5C146.433 8.5 148 10.067 148 12Z" fill="url(#paint1_linear_924_499)"/>
<path d="M136 12C136 13.933 134.433 15.5 132.5 15.5C130.567 15.5 129 13.933 129 12C129 10.067 130.567 8.5 132.5 8.5C134.433 8.5 136 10.067 136 12Z" fill="url(#paint2_linear_924_499)"/>
<path d="M124 12C124 13.933 122.433 15.5 120.5 15.5C118.567 15.5 117 13.933 117 12C117 10.067 118.567 8.5 120.5 8.5C122.433 8.5 124 10.067 124 12Z" fill="url(#paint3_linear_924_499)"/>
<path d="M33.3665 73.4444C33.1886 73.4444 32.9958 73.3852 32.7883 73.2667C32.6104 73.1481 32.4473 73.0593 32.2991 73L18.2897 63.3556C17.845 63.0593 17.5189 62.763 17.3113 62.4667C17.1038 62.1407 17 61.7704 17 61.3556V60.5556C17 60.1407 17.1038 59.7852 17.3113 59.4889C17.5189 59.1926 17.845 58.8815 18.2897 58.5556L32.2991 48.9556C32.4473 48.8667 32.6104 48.763 32.7883 48.6444C32.9958 48.5259 33.1886 48.4667 33.3665 48.4667C33.6037 48.4667 33.8112 48.5556 33.9891 48.7333C34.167 48.8815 34.2559 49.1037 34.2559 49.4V51.3556C34.2559 51.6815 34.167 51.963 33.9891 52.2C33.8112 52.4074 33.5592 52.6148 33.233 52.8222L21.314 60.9556L33.233 69.0889C33.5592 69.3259 33.8112 69.5481 33.9891 69.7556C34.167 69.963 34.2559 70.2444 34.2559 70.6V72.5556C34.2559 72.8222 34.167 73.0444 33.9891 73.2222C33.8112 73.3704 33.6037 73.4444 33.3665 73.4444Z" fill="url(#paint4_linear_924_499)"/>
<path d="M55.1226 74.5556C54.8261 74.5556 54.5741 74.4667 54.3666 74.2889C54.1887 74.0815 54.0997 73.8296 54.0997 73.5333V67.1333H39.6901C39.3936 67.1333 39.1416 67.0444 38.9341 66.8667C38.7562 66.6593 38.6672 66.4074 38.6672 66.1111V64.3333C38.6672 64.2148 38.6969 64.037 38.7562 63.8C38.8451 63.5333 38.9785 63.2667 39.1564 63L52.4987 44.2C52.8545 43.6963 53.403 43.4444 54.1442 43.4444H57.3463C57.6428 43.4444 57.88 43.5481 58.0579 43.7556C58.2655 43.9333 58.3692 44.1704 58.3692 44.4667V63.2667H62.3719C62.6981 63.2667 62.9501 63.3704 63.128 63.5778C63.3355 63.7556 63.4393 63.9926 63.4393 64.2889V66.1111C63.4393 66.4074 63.3355 66.6593 63.128 66.8667C62.9501 67.0444 62.7129 67.1333 62.4164 67.1333H58.3692V73.5333C58.3692 73.8296 58.2655 74.0815 58.0579 74.2889C57.88 74.4667 57.6428 74.5556 57.3463 74.5556H55.1226ZM43.4259 63.3556H54.1442V48.1111L43.4259 63.3556Z" fill="url(#paint5_linear_924_499)"/>
<path d="M79.0094 75C76.9636 75 75.2291 74.6889 73.8059 74.0667C72.4124 73.4148 71.2709 72.5259 70.3814 71.4C69.4919 70.2741 68.8396 68.9852 68.4245 67.5333C68.0391 66.0815 67.8167 64.5407 67.7574 62.9111C67.7278 62.1111 67.6981 61.2667 67.6685 60.3778C67.6685 59.4889 67.6685 58.6 67.6685 57.7111C67.6981 56.7926 67.7278 55.9185 67.7574 55.0889C67.7871 53.4593 68.0095 51.9185 68.4245 50.4667C68.8693 48.9852 69.5216 47.6963 70.3814 46.6C71.2709 45.4741 72.4272 44.6 73.8504 43.9778C75.2736 43.3259 76.9932 43 79.0094 43C81.0552 43 82.7749 43.3259 84.1684 43.9778C85.5916 44.6 86.7479 45.4741 87.6374 46.6C88.5268 47.6963 89.1791 48.9852 89.5942 50.4667C90.039 51.9185 90.2762 53.4593 90.3058 55.0889C90.3354 55.9185 90.3503 56.7926 90.3503 57.7111C90.3799 58.6 90.3799 59.4889 90.3503 60.3778C90.3503 61.2667 90.3354 62.1111 90.3058 62.9111C90.2762 64.5407 90.039 66.0815 89.5942 67.5333C89.1791 68.9852 88.5268 70.2741 87.6374 71.4C86.7775 72.5259 85.636 73.4148 84.2128 74.0667C82.8193 74.6889 81.0848 75 79.0094 75ZM79.0094 71.2222C81.322 71.2222 83.0269 70.4667 84.1239 68.9556C85.2506 67.4148 85.8287 65.3259 85.8584 62.6889C85.9177 61.8296 85.9473 61 85.9473 60.2C85.9473 59.3704 85.9473 58.5556 85.9473 57.7556C85.9473 56.9259 85.9177 56.1111 85.8584 55.3111C85.8287 52.7333 85.2506 50.6741 84.1239 49.1333C83.0269 47.563 81.322 46.7778 79.0094 46.7778C76.7264 46.7778 75.0215 47.563 73.8949 49.1333C72.7978 50.6741 72.2197 52.7333 72.1604 55.3111C72.1604 56.1111 72.1455 56.9259 72.1159 57.7556C72.1159 58.5556 72.1159 59.3704 72.1159 60.2C72.1455 61 72.1604 61.8296 72.1604 62.6889C72.2197 65.3259 72.8127 67.4148 73.9393 68.9556C75.066 70.4667 76.756 71.2222 79.0094 71.2222Z" fill="url(#paint6_linear_924_499)"/>
<path d="M110.976 74.5556C110.679 74.5556 110.427 74.4667 110.22 74.2889C110.042 74.0815 109.953 73.8296 109.953 73.5333V67.1333H95.5433C95.2468 67.1333 94.9948 67.0444 94.7873 66.8667C94.6094 66.6593 94.5204 66.4074 94.5204 66.1111V64.3333C94.5204 64.2148 94.5501 64.037 94.6094 63.8C94.6983 63.5333 94.8317 63.2667 95.0096 63L108.352 44.2C108.708 43.6963 109.256 43.4444 109.997 43.4444H113.2C113.496 43.4444 113.733 43.5481 113.911 43.7556C114.119 43.9333 114.222 44.1704 114.222 44.4667V63.2667H118.225C118.551 63.2667 118.803 63.3704 118.981 63.5778C119.189 63.7556 119.292 63.9926 119.292 64.2889V66.1111C119.292 66.4074 119.189 66.6593 118.981 66.8667C118.803 67.0444 118.566 67.1333 118.27 67.1333H114.222V73.5333C114.222 73.8296 114.119 74.0815 113.911 74.2889C113.733 74.4667 113.496 74.5556 113.2 74.5556H110.976ZM99.2791 63.3556H109.997V48.1111L99.2791 63.3556Z" fill="url(#paint7_linear_924_499)"/>
<path d="M124.678 73.4C124.441 73.4 124.233 73.3259 124.055 73.1778C123.877 73.0296 123.789 72.8074 123.789 72.5111V70.5556C123.789 70.2 123.863 69.9185 124.011 69.7111C124.189 69.5037 124.456 69.2963 124.811 69.0889L136.686 60.9556L124.811 52.8222C124.456 52.5852 124.189 52.363 124.011 52.1556C123.863 51.9481 123.789 51.6667 123.789 51.3111V49.3556C123.789 49.0593 123.877 48.837 124.055 48.6889C124.233 48.5407 124.441 48.4667 124.678 48.4667C124.856 48.4667 125.049 48.5259 125.256 48.6444C125.464 48.7333 125.627 48.8222 125.745 48.9111L139.71 58.5111C140.185 58.837 140.511 59.1481 140.689 59.4444C140.896 59.7407 141 60.1111 141 60.5556V61.3111C141 61.7259 140.896 62.0963 140.689 62.4222C140.511 62.7185 140.185 63.0296 139.71 63.3556L125.745 72.9556C125.627 73.0444 125.464 73.1481 125.256 73.2667C125.049 73.3556 124.856 73.4 124.678 73.4Z" fill="url(#paint8_linear_924_499)"/>
<defs>
<linearGradient id="paint0_linear_924_499" x1="-8.00001" y1="-26" x2="170" y2="155.5" gradientUnits="userSpaceOnUse">
<stop offset="0.074799" stop-color="#04DF00" stop-opacity="0.36"/>
<stop offset="0.470075" stop-color="#0FD20B"/>
<stop offset="0.773968" stop-color="#08C805" stop-opacity="0.38"/>
</linearGradient>
<linearGradient id="paint1_linear_924_499" x1="-8.00001" y1="-26" x2="170" y2="155.5" gradientUnits="userSpaceOnUse">
<stop offset="0.074799" stop-color="#04DF00" stop-opacity="0.36"/>
<stop offset="0.470075" stop-color="#0FD20B"/>
<stop offset="0.773968" stop-color="#08C805" stop-opacity="0.38"/>
</linearGradient>
<linearGradient id="paint2_linear_924_499" x1="-8.00001" y1="-26" x2="170" y2="155.5" gradientUnits="userSpaceOnUse">
<stop offset="0.074799" stop-color="#04DF00" stop-opacity="0.36"/>
<stop offset="0.470075" stop-color="#0FD20B"/>
<stop offset="0.773968" stop-color="#08C805" stop-opacity="0.38"/>
</linearGradient>
<linearGradient id="paint3_linear_924_499" x1="-8.00001" y1="-26" x2="170" y2="155.5" gradientUnits="userSpaceOnUse">
<stop offset="0.074799" stop-color="#04DF00" stop-opacity="0.36"/>
<stop offset="0.470075" stop-color="#0FD20B"/>
<stop offset="0.773968" stop-color="#08C805" stop-opacity="0.38"/>
</linearGradient>
<linearGradient id="paint4_linear_924_499" x1="-8.00001" y1="-26" x2="170" y2="155.5" gradientUnits="userSpaceOnUse">
<stop offset="0.074799" stop-color="#04DF00" stop-opacity="0.36"/>
<stop offset="0.470075" stop-color="#0FD20B"/>
<stop offset="0.773968" stop-color="#08C805" stop-opacity="0.38"/>
</linearGradient>
<linearGradient id="paint5_linear_924_499" x1="-8.00001" y1="-26" x2="170" y2="155.5" gradientUnits="userSpaceOnUse">
<stop offset="0.074799" stop-color="#04DF00" stop-opacity="0.36"/>
<stop offset="0.470075" stop-color="#0FD20B"/>
<stop offset="0.773968" stop-color="#08C805" stop-opacity="0.38"/>
</linearGradient>
<linearGradient id="paint6_linear_924_499" x1="-8.00001" y1="-26" x2="170" y2="155.5" gradientUnits="userSpaceOnUse">
<stop offset="0.074799" stop-color="#04DF00" stop-opacity="0.36"/>
<stop offset="0.470075" stop-color="#0FD20B"/>
<stop offset="0.773968" stop-color="#08C805" stop-opacity="0.38"/>
</linearGradient>
<linearGradient id="paint7_linear_924_499" x1="-8.00001" y1="-26" x2="170" y2="155.5" gradientUnits="userSpaceOnUse">
<stop offset="0.074799" stop-color="#04DF00" stop-opacity="0.36"/>
<stop offset="0.470075" stop-color="#0FD20B"/>
<stop offset="0.773968" stop-color="#08C805" stop-opacity="0.38"/>
</linearGradient>
<linearGradient id="paint8_linear_924_499" x1="-8.00001" y1="-26" x2="170" y2="155.5" gradientUnits="userSpaceOnUse">
<stop offset="0.074799" stop-color="#04DF00" stop-opacity="0.36"/>
<stop offset="0.470075" stop-color="#0FD20B"/>
<stop offset="0.773968" stop-color="#08C805" stop-opacity="0.38"/>
</linearGradient>
</defs>
</svg>
